<?xml version="1.0" encoding="UTF-8" standalone="no"?><!DOCTYPE svg PUBLIC "-//W3C//DTD SVG 1.1//EN" "http://www.w3.org/Graphics/SVG/1.1/DTD/svg11.dtd"><svg width="100%" height="100%" viewBox="0 0 300 150" version="1.1" xmlns="http://www.w3.org/2000/svg" xmlns:xlink="http://www.w3.org/1999/xlink" xml:space="preserve" xmlns:serif="http://www.serif.com/" style="fill-rule:evenodd;clip-rule:evenodd;stroke-linejoin:round;stroke-miterlimit:1.41421;"><g id="Countryflags.com"><rect x="0" y="0" width="299.843" height="149.983" style="fill:#fff;"/><path d="M134.928,0l0,59.961l-134.928,0l0,29.984l134.928,0l0,60.038l29.987,0l0,-60.038l134.928,0l0,-29.984l-134.928,0l0,-59.961l-29.987,0Z" style="fill:#cf142b;fill-rule:nonzero;"/><path d="M174.915,0l0,48.55l97.08,-48.55l-97.08,0Z" style="fill:#00247d;fill-rule:nonzero;"/><path d="M174.915,149.983l97.08,0l-97.08,-48.55l0,48.55Z" style="fill:#00247d;fill-rule:nonzero;"/><path d="M27.849,149.983l97.079,0l0,-48.55l-97.079,48.55Z" style="fill:#00247d;fill-rule:nonzero;"/><path d="M27.849,0l97.079,48.55l0,-48.55l-97.079,0Z" style="fill:#00247d;fill-rule:nonzero;"/><path d="M0.001,49.993l72.086,0l-72.086,-36.05l0,36.05Z" style="fill:#00247d;fill-rule:nonzero;"/><path d="M227.756,49.993l72.087,0l0,-36.05l-72.087,36.05Z" style="fill:#00247d;fill-rule:nonzero;"/><path d="M227.756,99.99l72.087,36.051l0,-36.051l-72.087,0Z" style="fill:#00247d;fill-rule:nonzero;"/><path d="M0,99.99l0,36.051l72.087,-36.051l-72.087,0Z" style="fill:#00247d;fill-rule:nonzero;"/><path d="M283.189,0l-99.788,49.993l16.653,0l99.946,-49.993l-16.811,0Z" style="fill:#cf142b;fill-rule:nonzero;"/><path d="M116.443,99.988l-16.654,0l-99.789,49.992l16.654,0l99.946,-49.992l-0.157,0Z" style="fill:#cf142b;fill-rule:nonzero;"/><path d="M0,0l0,8.385l83.267,41.647l16.654,0l-99.921,-50.032Z" style="fill:#cf142b;fill-rule:nonzero;"/><path d="M199.868,99.968l99.921,50.032l0.001,-8.385l-83.267,-41.647l-16.655,0Z" style="fill:#cf142b;fill-rule:nonzero;"/></g></svg>