<?xml version="1.0" encoding="utf-8"?>
<!-- Generator: Adobe Illustrator 21.1.0, SVG Export Plug-In . SVG Version: 6.00 Build 0)  -->
<svg version="1.1" id="Layer_1" xmlns="http://www.w3.org/2000/svg" xmlns:xlink="http://www.w3.org/1999/xlink" x="0px" y="0px"
	 viewBox="0 0 40 40" style="enable-background:new 0 0 40 40;" xml:space="preserve">
<style type="text/css">
	.st0{fill:none;}
	.st1{fill:none;stroke:#000000;stroke-linecap:round;stroke-linejoin:round;stroke-miterlimit:10;}
</style>
<rect class="st0" width="40" height="40"/>
<g>
	<path class="st1" d="M16.0316372,10C14.5003405,10.541667,10,14.6949673,10,24.9305191C10,27.9329491,13.5028248,30,20,30
		s10-2.0670509,10-5.0694809C30,14.6949673,25.4996605,10.541667,23.9683628,10"/>
	<circle class="st1" cx="20" cy="20" r="4"/>
	<path class="st1" d="M36.0316391,10C34.5003395,10.541667,30,14.6949673,30,24.9305191
		c0,2.3122959,2.0775871,4.0698013,6.0005035,4.7555866"/>
	<path class="st1" d="M4,10c1.5312977,0.541667,6.0316381,4.6949673,6.0316381,14.9305191
		c0,2.3122959-2.077589,4.0698013-6.0005031,4.7555866"/>
	<line class="st1" x1="24" y1="20" x2="36.0316391" y2="20"/>
	<line class="st1" x1="4.0158191" y1="20" x2="16" y2="20"/>
</g>
</svg>
