<?xml version="1.0" encoding="utf-8"?>
<!-- Generator: Adobe Illustrator 21.1.0, SVG Export Plug-In . SVG Version: 6.00 Build 0)  -->
<svg version="1.1" id="Layer_1" xmlns="http://www.w3.org/2000/svg" xmlns:xlink="http://www.w3.org/1999/xlink" x="0px" y="0px"
	 viewBox="0 0 40 40" style="enable-background:new 0 0 40 40;" xml:space="preserve">
<style type="text/css">
	.st0{fill:none;}
	.st1{fill:none;stroke:#000000;stroke-linecap:round;stroke-linejoin:round;stroke-miterlimit:10;}
</style>
<rect class="st0" width="40" height="40"/>
<g>
	<path class="st1" d="M35,33.9921684c0,2.75-2.25,5-5,5H10c-2.75,0-5-2.25-5-5v-23c0-2.75,2.25-5,5-5h20c2.75,0,5,2.25,5,5
		V33.9921684z"/>
	<line class="st1" x1="11.0087671" y1="34.0058975" x2="18.0087681" y2="34.0058975"/>
	<line class="st1" x1="22.0087681" y1="34.0058975" x2="29.0087681" y2="34.0058975"/>
	<path class="st1" d="M20,26.4881268C18.5836201,26.4881268,18.5217342,29,17.222147,29
		c-1.1266556,0-4.222146-3.1276398-4.222146-9.9462433C13.000001,17.0536327,15.4519777,15,20,15s7,2.0536327,7,4.0537567
		C27,25.8723602,23.9045086,29,22.7778549,29C21.4782658,29,21.4163818,26.4881268,20,26.4881268z"/>
	<path class="st1" d="M27,6.3730426v2.3333335c0,1.2886648-1.0446682,2.333333-2.333334,2.333333h-9.333333
		C14.0446692,11.0397091,13,9.9950409,13,8.7063761V6.3730426"/>
	<path class="st1" d="M15.5,5.5166254c0-2.4852812,2.014719-4.5,4.5-4.5s4.5,2.0147188,4.5,4.5"/>
</g>
</svg>
