<?xml version="1.0" encoding="utf-8"?>
<!-- Generator: Adobe Illustrator 21.1.0, SVG Export Plug-In . SVG Version: 6.00 Build 0)  -->
<svg version="1.1" id="Layer_1" xmlns="http://www.w3.org/2000/svg" xmlns:xlink="http://www.w3.org/1999/xlink" x="0px" y="0px"
	 viewBox="0 0 40 40" style="enable-background:new 0 0 40 40;" xml:space="preserve">
<style type="text/css">
	.st0{fill:none;}
	.st1{fill:none;stroke:#000000;stroke-linecap:round;stroke-linejoin:round;stroke-miterlimit:10;}
</style>
<rect class="st0" width="40" height="40"/>
<g>
	<path class="st1" d="M39,34c0,2.75-2.25,5-5,5H6c-2.75,0-5-2.25-5-5V6c0-2.75,2.25-5,5-5h28c2.75,0,5,2.25,5,5V34z"/>
	<line class="st1" x1="6" y1="6.0031252" x2="12" y2="6.0031252"/>
	<line class="st1" x1="5.9943933" y1="10" x2="7.9989471" y2="10"/>
	<path class="st1" d="M20,28.4116096C17.9766006,28.4116096,17.8881931,32,16.0316391,32
		c-1.6095076,0-6.0316381-4.4680576-6.0316381-14.2089195C10.000001,14.9337606,13.5028248,12,20,12s10,2.9337606,10,5.7910805
		C30,27.5319424,25.5778694,32,23.9683628,32C22.1118088,32,22.0234013,28.4116096,20,28.4116096z"/>
</g>
</svg>
