<?xml version="1.0" encoding="utf-8"?>
<!-- Generator: Adobe Illustrator 21.1.0, SVG Export Plug-In . SVG Version: 6.00 Build 0)  -->
<svg version="1.1" id="Layer_1" xmlns="http://www.w3.org/2000/svg" xmlns:xlink="http://www.w3.org/1999/xlink" x="0px" y="0px"
	 viewBox="0 0 40 40" style="enable-background:new 0 0 40 40;" xml:space="preserve">
<style type="text/css">
	.st0{fill:none;}
	.st1{fill:none;stroke:#000000;stroke-linecap:round;stroke-linejoin:round;stroke-miterlimit:10;}
</style>
<rect class="st0" width="40" height="40"/>
<g>
	<line class="st1" x1="3" y1="20" x2="11" y2="20"/>
	<path class="st1" d="M20,11c0,4.9705629-4.0294371,9-9,9c4.9705629,0,9,4.029438,9,9c0-4.970562,4.029438-9,9-9
		C24.029438,20,20,15.9705629,20,11z"/>
	<line class="st1" x1="12" y1="12" x2="14.8284273" y2="14.8284273"/>
	<line class="st1" x1="28.0031776" y1="12" x2="25.1747513" y2="14.8284273"/>
	<line class="st1" x1="12" y1="28.0097637" x2="14.8284273" y2="25.1813354"/>
	<line class="st1" x1="28.0031776" y1="28.0097637" x2="25.1747513" y2="25.1813354"/>
	<path class="st1" d="M4.2907715,23C5.696228,30.401062,12.1899414,36,20,36c8.8365479,0,16-7.1634521,16-16S28.8365479,4,20,4
		C12.1899414,4,5.696228,9.598938,4.2907715,17"/>
</g>
</svg>
