<?xml version="1.0" encoding="utf-8"?>
<!-- Generator: Adobe Illustrator 21.1.0, SVG Export Plug-In . SVG Version: 6.00 Build 0)  -->
<svg version="1.1" id="Layer_1" xmlns="http://www.w3.org/2000/svg" xmlns:xlink="http://www.w3.org/1999/xlink" x="0px" y="0px"
	 viewBox="0 0 40 40" style="enable-background:new 0 0 40 40;" xml:space="preserve">
<style type="text/css">
	.st0{fill:none;}
	.st1{fill:none;stroke:#000000;stroke-linecap:round;stroke-linejoin:round;stroke-miterlimit:10;}
</style>
<rect class="st0" width="40" height="40"/>
<g>
	<path class="st1" d="M20,16.2290993c5.5228481,0,10,1.7544518,10,7.1669693C30,27.6644764,27.4837723,35,20,35
		s-10-7.3355236-10-11.6039314C10,17.983551,14.4771528,16.2290993,20,16.2290993z"/>
	<path class="st1" d="M16.907299,6.2830477c-2.4110804-1.3920369-5.19347-1.468821-7.4318438-0.4460797
		c0.233469,2.4498591,1.6911621,4.8210855,4.1022425,6.2131219s5.19347,1.4688215,7.4318428,0.4460802
		C20.7760715,10.0463104,19.3183784,7.6750841,16.907299,6.2830477z"/>
	<path class="st1" d="M20,19c0,0,0-7.0231304,3-10"/>
</g>
</svg>
