<?xml version="1.0" encoding="utf-8"?>
<!-- Generator: Adobe Illustrator 19.0.0, SVG Export Plug-In . SVG Version: 6.00 Build 0)  -->
<svg version="1.1" id="Layer_2" xmlns="http://www.w3.org/2000/svg" xmlns:xlink="http://www.w3.org/1999/xlink" x="0px" y="0px"
	 viewBox="0 0 1000 254" style="enable-background:new 0 0 1000 254;" xml:space="preserve">
<style type="text/css">
	.st0{fill:#ED1C24;}
	.st1{fill:#FFFFFF;}
	.st2{font-family:'ArialMT';}
	.st3{font-size:67.4623px;}
	.st4{font-family:'Arial-BoldMT';}
	.st5{font-size:107.8966px;}
</style>
<g>
	<path class="st0" d="M160.7,191.8c16.6,27.5,30.9-32.9,30.9-32.9c-6,1.8-10,25.9-20.8,22.2c-10.8-3.7-18.9-37.5-21.1-46.4
		c-2.3-8.9-5.7-33.2-5.2-51c0.4-17.8,7.4-19.1,23.1-15.8c15.7,3.3,15.2,6.3,30.8,11.1c15.7,4.8,21.4-6.9,21.4-6.9s-8,2.3-19.7-0.5
		c-11.8-2.7-22.4-13.4-22.4-13.4c-51.7-47.1-45.9,19.2-45.9,19.2s-0.9,26.1,6.1,56.9C145.9,169.9,160.7,191.8,160.7,191.8z"/>
	<path class="st1" d="M223.7,153.2c-14.5,20.5-22.2-27.4-22.2-27.4c4.5,1.8,6.3,20.8,14.9,18.5c8.6-2.3,16.9-28.1,19.1-34.9
		c2.3-6.8,6.3-25.5,7-39.4c0.7-13.9-4.6-15.3-17.1-13.6c-12.4,1.7-12.2,4-24.7,6.9c-12.5,2.8-16.3-6.6-16.3-6.6s6.1,2.2,15.4,0.8
		c9.3-1.5,18.2-9.1,18.2-9.1c43-33.7,34.6,17.6,34.6,17.6s-0.8,20.4-8,44C236.4,136.9,223.7,153.2,223.7,153.2z"/>
	<text transform="matrix(1 0 0 1 260.8184 90.2393)" class="st1 st2 st3">Stomatologija</text>
	<text transform="matrix(1 0 0 1 258.8184 197.0342)" class="st0 st4 st5">Krsmanović</text>
</g>
</svg>
